<svg id="Capa_1" enable-background="new 0 0 494.727 494.727" height="512" viewBox="0 0 494.727 494.727" width="512" xmlns="http://www.w3.org/2000/svg">
    <g>
        <path d="m419.864 130.902 15-36.442-15-36.442-215.559-57.758c-4.763-1.276-9.441 2.313-9.441 7.244v233.03c0 12.133-7.309 23.072-18.519 27.716l-92.078 38.143c-23.872 9.899-40.437 33.866-39.353 61.56 1.305 33.327 28.29 60.137 61.625 61.241 9.445.313 18.45-1.427 26.603-4.808l41.021-17.027c30.695-12.741 50.702-42.708 50.702-75.942v-190.649l195 52.25 15-15.529-15-15.529-195-52.25v-31.058z" fill="#8a7af1" />
        <path d="m419.864 58.02v248.01c0 94.349-50.7 179.28-50.7 179.28l30-12.45c30.69-12.74 50.7-42.71 50.7-75.94v-325.105c0-3.394-2.28-6.366-5.559-7.244z" fill="#725fee" />
        <path d="m419.864 306.03v103.34c0 33.23-20.01 63.2-50.7 75.94l-11.02 4.58c-8.16 3.38-17.16 5.12-26.61 4.8-33.33-1.1-60.31-27.91-61.62-61.23-1.08-27.7 15.48-51.67 39.35-61.57l92.08-38.14c11.21-4.64 18.52-15.58 18.52-27.72z" fill="#8a7af1" />
    </g>
</svg>